HIERARCHY
ROOT Hips
{
  OFFSET 49.2485 84.2781 33.6882
  CHANNELS 6 Xposition Yposition Zposition Zrotation Xrotation Yrotation
  JOINT spine
  {
    OFFSET 0 6.2448 0.359107
    CHANNELS 3 Zrotation Xrotation Yrotation
    JOINT spine1
    {
      OFFSET 0 9.06941 0
      CHANNELS 3 Zrotation Xrotation Yrotation
      JOINT spine2
      {
        OFFSET 0 8.69014 0
        CHANNELS 3 Zrotation Xrotation Yrotation
        JOINT Neck
        {
          OFFSET 0 22.3112 1.06372
          CHANNELS 3 Zrotation Xrotation Yrotation
          JOINT Head
          {
            OFFSET 0 6.74081 0
            CHANNELS 3 Zrotation Xrotation Yrotation
            End Site
            {
              OFFSET 0 16.3165 -5.38097
            }
          }
        }
        JOINT RightShoulder
        {
          OFFSET -3.65916 9.38468 -0.509514
          CHANNELS 3 Zrotation Xrotation Yrotation
          JOINT RightArm
          {
            OFFSET 0 12.3089 0
            CHANNELS 3 Zrotation Xrotation Yrotation
            JOINT RightArmRoll
            {
              OFFSET 0 6.21375 0
              CHANNELS 3 Zrotation Xrotation Yrotation
              JOINT RightForeArm
              {
                OFFSET 0 18.0985 0
                CHANNELS 3 Zrotation Xrotation Yrotation
                JOINT RightForeArmRoll
                {
                  OFFSET 0 6.97279 0
                  CHANNELS 3 Zrotation Xrotation Yrotation
                  JOINT RightHand
                  {
                    OFFSET 0 13.9929 0
                    CHANNELS 3 Zrotation Xrotation Yrotation
                    End Site
                    {
                      OFFSET 0 0 0
                    }
                  }
                }
              }
            }
          }
        }
        JOINT LeftShoulder
        {
          OFFSET 3.65916 9.38468 -0.509514
          CHANNELS 3 Zrotation Xrotation Yrotation
          JOINT LeftArm
          {
            OFFSET 0 12.3089 0
            CHANNELS 3 Zrotation Xrotation Yrotation
            JOINT LeftArmRoll
            {
              OFFSET 0 6.21375 0
              CHANNELS 3 Zrotation Xrotation Yrotation
              JOINT LeftForeArm
              {
                OFFSET 0 18.0985 0
                CHANNELS 3 Zrotation Xrotation Yrotation
                JOINT LeftForeArmRoll
                {
                  OFFSET 0 6.97279 0
                  CHANNELS 3 Zrotation Xrotation Yrotation
                  JOINT LeftHand
                  {
                    OFFSET 0 13.9929 0
                    CHANNELS 3 Zrotation Xrotation Yrotation
                    End Site
                    {
                      OFFSET 0 0 0
                    }
                  }
                }
              }
            }
          }
        }
      }
    }
  }
  JOINT RightUpLeg
  {
    OFFSET -5.53515 -1.015 -0.851454
    CHANNELS 3 Zrotation Xrotation Yrotation
    JOINT RightUpLegRoll
    {
      OFFSET 0 16.4075 0
      CHANNELS 3 Zrotation Xrotation Yrotation
      JOINT RightLeg
      {
        OFFSET 0 -20.3181 0
        CHANNELS 3 Zrotation Xrotation Yrotation
        JOINT RightLegRoll
        {
          OFFSET 0 20.3846 0
          CHANNELS 3 Zrotation Xrotation Yrotation
          JOINT RightFoot
          {
            OFFSET 0 16.9668 0
            CHANNELS 3 Zrotation Xrotation Yrotation
            JOINT RightToeBase
            {
              OFFSET 0 14.1834 0
              CHANNELS 3 Zrotation Xrotation Yrotation
              End Site
              {
                OFFSET 0.0060118 6.8689 -0.791746
              }
            }
          }
        }
      }
    }
  }
  JOINT LeftUpLeg
  {
    OFFSET 5.53515 -1.015 -0.851454
    CHANNELS 3 Zrotation Xrotation Yrotation
    JOINT LeftUpLegRoll
    {
      OFFSET 0 16.4076 0
      CHANNELS 3 Zrotation Xrotation Yrotation
      JOINT LeftLeg
      {
        OFFSET 0 20.3181 0
        CHANNELS 3 Zrotation Xrotation Yrotation
        JOINT LeftLegRoll
        {
          OFFSET 0 20.5731 0
          CHANNELS 3 Zrotation Xrotation Yrotation
          JOINT LeftFoot
          {
            OFFSET 0 16.7783 0
            CHANNELS 3 Zrotation Xrotation Yrotation
            JOINT LeftToeBase
            {
              OFFSET 0 14.1834 0
              CHANNELS 3 Zrotation Xrotation Yrotation
              End Site
              {
                OFFSET -0.0269423 6.86889 -0.791746
              }
            }
          }
        }
      }
    }
  }
}
MOTION
Frames: 10
Frame Time: 0.00208333
47.7672 63.8179 10.1534 -1.17233 41.2836 -5.62869 0.280858 0.54509 -0.0782406 0.570329 5.09244 -0.208077 0.57389 6.73748 -0.217966 -12.0911 -16.2747 0.409364 5.13695 14.1036 -0.63806 41.144 -10.73 -6.79052 149.212 23.3673 -42.3701 -7.95139e-015 -3.18055e-015 -6.36111e-015 24.1969 63.2102 -18.3618 -7.50153e-006 1.26302e-005 -2.99999 8.02891 -4.95148 0.697646 -62.2272 -5.88006 3.79278 -108.778 48.9976 38.5765 -1.07572e-005 -7.09363e-007 6.15991e-007 -30.2775 42.6981 12.9876 3.32014e-006 1.03767e-005 3 -8.02898 -4.95126 -0.697605 -46.3913 74.483 -135.172 180 7.01639e-015 179.456 177.775 73.7075 -178.951 -7.82736e-007 -6.7001e-007 1.3863 -31.444 76.9521 32.5038 8.13684 25.2378 -3.48855 -7.61161 77.6524 -163.174 4.54188e-006 -4.6773e-006 -0.635905 37.0338 -83.2094 34.1891 -2.31271e-006 7.68175e-007 -2.94606 37.1017 79.5516 -39.8819 -8.16334 27.4845 0.613464 
47.7659 63.8888 10.1938 -1.17645 41.1846 -5.61158 0.279016 0.54321 -0.0773405 0.56632 5.08869 -0.20623 0.569851 6.73373 -0.216049 -12.0577 -16.3067 0.415754 5.11173 14.1345 -0.626283 41.2681 -10.6979 -6.76121 149.124 23.3867 -42.2194 -7.95139e-015 -6.36111e-015 -0 24.1095 63.0404 -18.2389 -7.50153e-006 1.26302e-005 -2.99999 8.02891 -4.95148 0.697646 -62.2698 -5.87775 3.79355 -108.93 49.0376 38.4581 -1.07572e-005 -7.09363e-007 6.15991e-007 -30.2722 42.4026 12.8797 3.32014e-006 1.03767e-005 3 -8.02898 -4.95126 -0.697605 -46.9486 74.629 -134.607 180 7.01639e-015 179.454 177.817 73.6659 -178.984 -7.82736e-007 -6.7001e-007 1.38924 -31.6028 77.0102 32.6561 8.13684 25.2378 -3.48855 -7.74489 77.8619 -163.059 4.54188e-006 -4.6773e-006 -0.63895 36.8507 -83.1689 34.0032 -2.31271e-006 7.68175e-007 -2.95028 37.2038 79.5803 -39.9923 -8.1631 27.4977 0.596608 
47.763 63.9153 10.2832 -1.18101 41.0847 -5.59276 0.277155 0.541708 -0.0765965 0.562242 5.08569 -0.204636 0.565746 6.73074 -0.214384 -12.0234 -16.3442 0.421096 5.0863 14.1682 -0.615007 41.3977 -10.6704 -6.73591 149.035 23.4078 -42.0745 -9.54166e-015 -6.36111e-015 3.18055e-015 24.0256 62.8641 -18.1164 -7.50153e-006 1.26302e-005 -2.99999 8.02891 -4.95148 0.697646 -62.3094 -5.87844 3.79591 -109.091 49.0781 38.3437 -1.07572e-005 -7.09363e-007 6.15991e-007 -30.2627 42.1065 12.7702 3.32014e-006 1.03767e-005 3 -8.02898 -4.95126 -0.697605 -47.5167 74.7754 -134.032 180 7.01639e-015 179.452 177.859 73.6237 -179.017 -7.82736e-007 -6.7001e-007 1.3922 -31.7626 77.0683 32.8093 8.13684 25.2378 -3.48855 -7.87725 78.0729 -162.944 4.54188e-006 -4.6773e-006 -0.642051 36.665 -83.127 33.8146 -2.31271e-006 7.68175e-007 -2.95447 37.3039 79.6084 -40.1006 -8.16296 27.5107 0.579984 
47.7605 64.0595 10.2374 -1.18597 40.984 -5.57245 0.275266 0.540504 -0.0759915 0.558084 5.0833 -0.203263 0.561564 6.72834 -0.212938 -11.988 -16.3862 0.425556 5.0604 14.2042 -0.604128 41.5322 -10.6465 -6.71393 148.945 23.4305 -41.9344 -1.35174e-014 -3.18055e-015 -3.18055e-015 23.945 62.6823 -17.9947 -7.50153e-006 1.26302e-005 -2.99999 8.02891 -4.95148 0.697646 -62.3465 -5.88157 3.7996 -109.26 49.1187 38.2324 -1.07572e-005 -7.09363e-007 6.15991e-007 -30.2494 41.8102 12.6595 3.32014e-006 1.03767e-005 3 -8.02898 -4.95126 -0.697605 -48.0962 74.922 -133.445 180 7.01639e-015 179.449 177.9 73.5811 -179.05 -7.82736e-007 -6.7001e-007 1.39517 -31.9231 77.1263 32.9634 8.13684 25.2378 -3.48855 -8.01019 78.2851 -162.828 4.54188e-006 -4.6773e-006 -0.645193 36.4761 -83.0837 33.6226 -2.31271e-006 7.68175e-007 -2.95859 37.4019 79.6359 -40.2067 -8.16288 27.5236 0.563573 
47.7541 64.0924 10.3276 -1.19128 40.8826 -5.55087 0.273343 0.539516 -0.0755082 0.553839 5.08133 -0.202076 0.557296 6.72637 -0.211678 -11.9511 -16.4316 0.429297 5.0338 14.2419 -0.593539 41.6708 -10.6256 -6.6946 148.854 23.4546 -41.7981 2.38542e-015 6.36111e-015 -7.95139e-015 23.8675 62.4964 -17.8742 -7.50153e-006 1.26302e-005 -2.99999 8.02891 -4.95148 0.697646 -62.3816 -5.88662 3.80431 -109.434 49.1592 38.1234 -1.07572e-005 -7.09363e-007 6.15991e-007 -30.2328 41.5145 12.5482 3.32014e-006 1.03767e-005 3 -8.02898 -4.95126 -0.697605 -48.6877 75.0685 -132.847 180 7.01638e-015 179.447 177.941 73.5378 -179.083 -7.82736e-007 -6.7001e-007 1.39813 -32.0843 77.184 33.1182 8.13684 25.2378 -3.48855 -8.14522 78.4984 -162.71 4.54188e-006 -4.6773e-006 -0.648363 36.2833 -83.0391 33.4268 -2.31271e-006 7.68175e-007 -2.96261 37.4978 79.6629 -40.3106 -8.16286 27.5364 0.547355 
47.7368 64.159 10.3986 -1.19687 40.7807 -5.52826 0.271377 0.538663 -0.0751293 0.549496 5.07963 -0.201042 0.552932 6.72467 -0.21057 -11.9127 -16.4796 0.432485 5.00624 14.2808 -0.583136 41.8129 -10.6068 -6.67724 148.763 23.4798 -41.6647 3.18055e-015 6.36111e-015 -4.77083e-015 23.7929 62.3073 -17.7551 -7.50153e-006 1.26302e-005 -2.99999 8.02891 -4.95148 0.697646 -62.4152 -5.89304 3.80976 -109.612 49.1992 38.0157 -1.07572e-005 -7.09363e-007 6.15991e-007 -30.2132 41.2196 12.4365 3.32014e-006 1.03767e-005 3 -8.02898 -4.95126 -0.697605 -49.2916 75.2146 -132.236 180 7.01638e-015 179.445 177.982 73.4938 -179.116 -7.82736e-007 -6.7001e-007 1.40108 -32.2459 77.2414 33.2735 8.13684 25.2378 -3.48855 -8.28404 78.7124 -162.589 4.54188e-006 -4.6773e-006 -0.651546 36.0859 -82.9933 33.2265 -2.31271e-006 7.68175e-007 -2.96648 37.5915 79.6892 -40.4123 -8.16288 27.549 0.531309 
47.7371 64.2199 10.4505 -1.2027 40.6783 -5.50483 0.269362 0.537866 -0.0748376 0.545046 5.07805 -0.200129 0.548463 6.72309 -0.20958 -11.8724 -16.5291 0.435284 4.97747 14.3203 -0.572811 41.9577 -10.5894 -6.66119 148.669 23.506 -41.5333 -5.56597e-015 -6.36111e-015 -1.59028e-015 23.7211 62.1164 -17.6376 -7.50153e-006 1.26302e-005 -2.99999 8.02891 -4.95148 0.697646 -62.4479 -5.90029 3.81567 -109.791 49.2383 37.9087 -1.07572e-005 -7.09363e-007 6.15991e-007 -30.1913 40.9261 12.3249 3.32014e-006 1.03767e-005 3 -8.02898 -4.95126 -0.697605 -49.9084 75.36 -131.612 180 7.01638e-015 179.443 178.022 73.4491 -179.149 -7.82736e-007 -6.7001e-007 1.40401 -32.4077 77.2984 33.4292 8.13684 25.2378 -3.48855 -8.42839 78.927 -162.462 4.54188e-006 -4.6773e-006 -0.65473 35.8832 -82.9464 33.0212 -2.31271e-006 7.68175e-007 -2.97017 37.6831 79.7148 -40.5116 -8.16291 27.5615 0.515416 
47.7318 64.2563 10.5486 -1.20874 40.5757 -5.48081 0.267289 0.537043 -0.0746157 0.54048 5.07641 -0.199302 0.543878 6.72145 -0.208675 -11.83 -16.579 0.437859 4.94724 14.3598 -0.562461 42.1045 -10.5725 -6.64575 148.575 23.5328 -41.4027 -1.27222e-014 -6.36111e-015 -1.59028e-015 23.6518 61.9247 -17.522 -7.50153e-006 1.26302e-005 -2.99999 8.02891 -4.95148 0.697646 -62.4802 -5.90782 3.82173 -109.971 49.2763 37.8013 -1.07572e-005 -7.09363e-007 6.15991e-007 -30.1673 40.6346 12.2138 3.32014e-006 1.03767e-005 3 -8.02898 -4.95126 -0.697605 -50.5385 75.5043 -130.975 180 7.01638e-015 179.441 178.062 73.4034 -179.181 -7.82736e-007 -6.7001e-007 1.4069 -32.5697 77.3549 33.5849 8.13684 25.2378 -3.48855 -8.58019 79.1418 -162.328 4.54188e-006 -4.6773e-006 -0.657901 35.6744 -82.8986 32.8103 -2.31271e-006 7.68175e-007 -2.97362 37.7724 79.7398 -40.6086 -8.16295 27.5739 0.499656 
47.7252 64.3269 10.5971 -1.21492 40.473 -5.4564 0.265151 0.536113 -0.0744463 0.535789 5.07456 -0.198528 0.539167 6.7196 -0.20782 -11.7854 -16.6284 0.440374 4.91531 14.3988 -0.55198 42.2525 -10.5553 -6.63027 148.479 23.56 -41.2722 -7.95139e-016 -6.36111e-015 4.77083e-015 23.5847 61.7335 -17.4085 -7.50153e-006 1.26302e-005 -2.99999 8.02891 -4.95148 0.697646 -62.5126 -5.91509 3.82768 -110.149 49.3127 37.6929 -1.07572e-005 -7.09363e-007 6.15991e-007 -30.1417 40.3455 12.1035 3.32014e-006 1.03767e-005 3 -8.02898 -4.95126 -0.697605 -51.1823 75.6472 -130.324 180 7.01637e-015 179.439 178.102 73.3567 -179.213 -7.82736e-007 -6.7001e-007 1.40976 -32.7315 77.4107 33.7406 8.13684 25.2378 -3.48855 -8.74146 79.3565 -162.185 4.54188e-006 -4.6773e-006 -0.661044 35.459 -82.8498 32.5934 -2.31271e-006 7.68175e-007 -2.97682 37.8596 79.764 -40.7031 -8.16297 27.5862 0.484008 
47.7378 64.358 10.7066 -1.22122 40.3703 -5.43183 0.262941 0.534995 -0.0743123 0.530962 5.07234 -0.197773 0.534322 6.71737 -0.206983 -11.7382 -16.6763 0.442994 4.88142 14.4367 -0.541261 42.4012 -10.5372 -6.61406 148.381 23.5875 -41.1407 -7.15625e-015 0 -6.36111e-015 23.5196 61.5439 -17.2972 -7.50153e-006 1.26302e-005 -2.99999 8.02891 -4.95148 0.697646 -62.5457 -5.92156 3.8332 -110.322 49.3473 37.5824 -1.07572e-005 -7.09363e-007 6.15991e-007 -30.1148 40.0593 11.9943 3.32014e-006 1.03767e-005 3 -8.02898 -4.95126 -0.697605 -51.8402 75.7884 -129.659 180 7.01637e-015 179.437 178.141 73.3089 -179.245 -7.82736e-007 -6.7001e-007 1.41256 -32.893 77.4659 33.896 8.13684 25.2378 -3.48855 -8.91437 79.571 -162.031 4.54188e-006 -4.6773e-006 -0.664147 35.2361 -82.8003 32.3699 -2.31271e-006 7.68175e-007 -2.9797 37.9445 79.7875 -40.7953 -8.16295 27.5983 0.468452 
